<svg xmlns="http://www.w3.org/2000/svg" xmlns:xlink="http://www.w3.org/1999/xlink" width="600" height="348" viewBox="0 0 179.061 113.839">
  <defs>
    <linearGradient id="linear-gradient" x1="0.5" x2="0.5" y2="0.921" gradientUnits="objectBoundingBox">
      <stop offset="0" stop-color="#ffe0e1"/>
      <stop offset="1" stop-color="#fff" stop-opacity="0"/>
    </linearGradient>
    <linearGradient id="linear-gradient-2" x1="0.5" x2="0.5" y2="1" gradientUnits="objectBoundingBox">
      <stop offset="0" stop-color="#ffe0e0"/>
      <stop offset="0.6" stop-color="#fff" stop-opacity="0.502"/>
      <stop offset="1" stop-color="#fff" stop-opacity="0"/>
    </linearGradient>
    <linearGradient id="linear-gradient-3" x1="1" y1="-1.068" x2="1.085" y2="1" gradientUnits="objectBoundingBox">
      <stop offset="0" stop-color="#ff9699"/>
      <stop offset="1" stop-color="#ffd5d5" stop-opacity="0"/>
    </linearGradient>
    <linearGradient id="linear-gradient-5" x1="0.42" x2="0.66" y2="1" gradientUnits="objectBoundingBox">
      <stop offset="0" stop-color="#ffc3c3"/>
      <stop offset="1" stop-color="#ff7b7b"/>
    </linearGradient>
    <linearGradient id="linear-gradient-8" x1="0.58" x2="0.34" y2="1" gradientUnits="objectBoundingBox">
      <stop offset="0" stop-color="#ffc3c3"/>
      <stop offset="1" stop-color="#ff9a9a"/>
    </linearGradient>
    <linearGradient id="linear-gradient-9" x1="0.442" y1="0.107" x2="0.534" y2="0.5" gradientUnits="objectBoundingBox">
      <stop offset="0" stop-color="#fcc"/>
      <stop offset="1" stop-color="#ffadad"/>
    </linearGradient>
    <linearGradient id="linear-gradient-10" x1="0.224" y1="0.262" x2="0.57" y2="1" gradientUnits="objectBoundingBox">
      <stop offset="0" stop-color="#ffc1c1"/>
      <stop offset="1" stop-color="#ff9191"/>
    </linearGradient>
    <linearGradient id="linear-gradient-11" x1="0.5" y1="0.327" x2="0.5" y2="1" gradientUnits="objectBoundingBox">
      <stop offset="0" stop-color="#ffa3a3"/>
      <stop offset="1" stop-color="#faa"/>
    </linearGradient>
    <linearGradient id="linear-gradient-12" x1="0.5" y1="0.673" x2="0.5" gradientUnits="objectBoundingBox">
      <stop offset="0" stop-color="#ffc6c6"/>
      <stop offset="1" stop-color="#faa"/>
    </linearGradient>
    <linearGradient id="linear-gradient-13" x1="0.401" y1="1.751" x2="0.34" y2="1" gradientUnits="objectBoundingBox">
      <stop offset="0" stop-color="#fcc"/>
      <stop offset="1" stop-color="#ffa5a5"/>
    </linearGradient>
    <linearGradient id="linear-gradient-14" x1="0.468" y1="0.034" x2="0.468" y2="0.965" gradientUnits="objectBoundingBox">
      <stop offset="0" stop-color="#ffc9c9"/>
      <stop offset="1" stop-color="#ffbcbc"/>
    </linearGradient>
    <linearGradient id="linear-gradient-15" x1="0.468" y1="0.035" x2="0.468" y2="0.967" gradientUnits="objectBoundingBox">
      <stop offset="0" stop-color="#ffe6e6"/>
      <stop offset="1" stop-color="#fcc"/>
    </linearGradient>
    <linearGradient id="linear-gradient-16" x1="-0.895" y1="-0.682" x2="-0.895" y2="-2.094" gradientUnits="objectBoundingBox">
      <stop offset="0" stop-color="#fdd"/>
      <stop offset="1" stop-color="#ffdede"/>
    </linearGradient>
    <linearGradient id="linear-gradient-17" x1="-1.71" y1="-1.978" x2="-1.71" y2="-2.481" gradientUnits="objectBoundingBox">
      <stop offset="0" stop-color="#fdc6c6"/>
      <stop offset="0.473" stop-color="#fff"/>
      <stop offset="1" stop-color="#fff"/>
    </linearGradient>
    <linearGradient id="linear-gradient-19" x1="-3.28" y1="-3.145" x2="-3.28" y2="-3.617" gradientUnits="objectBoundingBox">
      <stop offset="0" stop-color="#ffcece"/>
      <stop offset="0.315" stop-color="#ffa3a3"/>
      <stop offset="1" stop-color="#ffebeb"/>
    </linearGradient>
    <linearGradient id="linear-gradient-20" x1="-3.595" y1="-3.466" x2="-3.595" y2="-3.97" gradientUnits="objectBoundingBox">
      <stop offset="0" stop-color="#ffc3c3"/>
      <stop offset="0.084" stop-color="#ffc9c9"/>
      <stop offset="1" stop-color="#ffb2b2"/>
    </linearGradient>
  </defs>
  <g id="图片加载失败" transform="translate(-1358 -942.391)">
    <path id="Fill-1" d="M316.293,272.244c2.73,1.522,2.5,3.532-.742,4.908-2.988,1.266-5.514,2.673-5.514,4.155v3.66H456.916v-3.66c0-2.957-3.449-5.615-8.938-7.452-3.886-1.3-4.8-3.418-2.351-5.133,1.616-1.133,2.532-2.424,2.532-3.794,0-3.385-5.579-6.285-13.516-7.51-2.953-.456-4.4-1.681-3.275-2.791a3.275,3.275,0,0,0,1.126-2.306c0-3.016-5.487-5.556-12.963-6.325a6.411,6.411,0,0,1-3.63-1.238c-1.524-1.564-4.428-2.885-8.166-3.759-1.971-.461-2.988-1.311-2.626-2.164a1.956,1.956,0,0,0,.131-1.146c-.464-2.466-5.794-4.464-12.443-4.666q-.906-.027-1.787-.011c-1.8.032-3.333-.454-3.507-1.118,0-.015-.008-.03-.012-.045-.563-1.935-4.865-3.462-10.1-3.591-5.357-.132-9.955,1.17-11.277,2.972a5.557,5.557,0,0,1-3.361,1.531c-3.4.625-8.3,2.014-8.062,5.384a2.6,2.6,0,0,0,.483,1.3c.587.844-.425,1.726-2.488,2.145-4.009.815-6.791,1.813-7.432,3.641a1.74,1.74,0,0,0,.024.976c.2.8-1.22,1.529-3.335,1.7-7.987.658-13.958,3.3-13.958,6.456a2.751,2.751,0,0,0,.391,1.382c.916,1.595-1.05,3.229-4.785,4.091-6.767,1.562-11.27,4.344-11.27,7.516,0,1.808,1.464,3.489,3.976,4.89" transform="translate(1071.963 769.236)" fill-rule="evenodd" fill="url(#linear-gradient)"/>
    <path id="路径_8510" data-name="路径 8510" d="M377.794,772.132c0-2.667-19.931-9.662-44.517-9.662s-44.517,6.995-44.517,9.662Z" transform="translate(1119.083 284.098)" fill="url(#linear-gradient-2)"/>
    <path id="路径_5901" data-name="路径 5901" d="M77.406,104.4H73.368s-4.442.223-4.164-2.9c.258-2.878,3.216-2.233,3.216-2.233s.273-5.849,7.31-5.638c6.844.206,7.31,6.253,7.31,6.253a2.414,2.414,0,0,1,2.4,2.065c.166,1.563-1.34,2.457-2.735,2.457h-9.3Z" transform="translate(1402.98 848.773)" fill="url(#linear-gradient-3)"/>
    <path id="路径_5902" data-name="路径 5902" d="M436.978,130.066a9.508,9.508,0,0,0-1.2,1.6,12.232,12.232,0,0,0-1.508,6.51,4.981,4.981,0,0,0-4.692.651c-1.881,1.508-1.184,5.216,3.075,5.216h27.971s2.824.456,2.916-2.018c.114-3.121-3.7-2.547-3.7-2.547a3.453,3.453,0,0,0-1.485-4.273,3.72,3.72,0,0,0-4.647.752s-1.093-10.416-11.348-8.61a11.815,11.815,0,0,0-2.068.558,10.667,10.667,0,0,0-3.31,2.159Z" transform="translate(965.819 829.878)" fill="url(#linear-gradient-3)"/>
    <g id="组_5827" data-name="组 5827" transform="translate(1358 995.174)" opacity="0.736">
      <g id="plant_11_" transform="translate(0 5.33) rotate(-1)">
        <path id="Path" d="M1.471,5.3a.124.124,0,0,1-.1-.043A4.789,4.789,0,0,1,.035,1.5,3,3,0,0,1,.631.041.128.128,0,0,1,.8.022a.1.1,0,0,1,.021.15,2.858,2.858,0,0,0-.55,1.364,4.6,4.6,0,0,0,1.3,3.591.1.1,0,0,1-.024.15A.126.126,0,0,1,1.471,5.3Z" transform="translate(4.971 7.518)" fill="#d0e7fe"/>
        <path id="Path-2" data-name="Path" d="M18.018,15.1C9.077,4.494-.007,6.423,0,3.07,0,2.043,2.879-.972,7.066.314S16.972,5.8,18.018,15.1Z" transform="translate(7.819 34.334)" fill="url(#linear-gradient-5)"/>
        <path id="Path-3" data-name="Path" d="M1.248,5.377C9.648-8.884,42.372,5.013,25.9,49.55c0,0-1.561-17.944-10.808-24.775S-3.42,13.3,1.248,5.377Z" fill="url(#linear-gradient-5)"/>
        <path id="Path-4" data-name="Path" d="M0,20.138c7.87-4.579,15.816-5.6,16.138-12.3C16.357,3.281,15.172,0,12.012,0,10.247,0,2.963,5.156,0,20.138Z" transform="translate(26.31 29.459)" fill="url(#linear-gradient-5)"/>
        <path id="Path-5" data-name="Path" d="M2.283,2.65a.1.1,0,0,1-.1-.082C2.18,2.544,1.644.235.1.214A.1.1,0,0,1,0,.106.1.1,0,0,1,.1,0c1.7.023,2.257,2.416,2.28,2.518a.107.107,0,0,1-.075.129A.1.1,0,0,1,2.283,2.65Z" transform="translate(22.432 28.944)" fill="#fff"/>
        <path id="Path-6" data-name="Path" d="M.108,2.385l-.019,0A.111.111,0,0,1,0,2.255C.014,2.181.324.441,1.445.007a.106.106,0,0,1,.138.065A.112.112,0,0,1,1.52.215C.515.6.216,2.277.213,2.294A.108.108,0,0,1,.108,2.385Z" transform="translate(25.747 34.733)" fill="#fff"/>
        <path id="Path-7" data-name="Path" d="M6.518,4.24a.106.106,0,0,1-.1-.075A5.584,5.584,0,0,0,.125.289.108.108,0,0,1,0,.2.111.111,0,0,1,.087.068,5.791,5.791,0,0,1,6.618,4.09a.114.114,0,0,1-.064.143A.1.1,0,0,1,6.518,4.24Z" transform="translate(15.266 16.647)" fill="#fff"/>
        <path id="Path-8" data-name="Path" d="M.308,6.094A.1.1,0,0,1,.22,6.015,6.639,6.639,0,0,1,.6,1.459,4.28,4.28,0,0,1,1.714.017.084.084,0,0,1,1.84.05.118.118,0,0,1,1.813.2C1.789.215-.514,2,.4,5.96a.11.11,0,0,1-.065.131A.087.087,0,0,1,.308,6.094Z" transform="translate(22.762 18.6)" fill="#fff"/>
        <path id="Path-9" data-name="Path" d="M15.731,42.4a.1.1,0,0,1-.095-.062C11.379,33.031.97,30.051.866,30.022a.11.11,0,0,1-.074-.133.1.1,0,0,1,.129-.077c.1.029,10.321,2.953,14.725,12.045a87.2,87.2,0,0,0-1.235-17.5C12.856,15.712,9.105,4.51.061.208A.11.11,0,0,1,.01.064.1.1,0,0,1,.149.01c5.038,2.4,11.638,8.559,14.469,24.306a86.565,86.565,0,0,1,1.218,17.978.107.107,0,0,1-.085.1Z" transform="translate(10.341 7.377)" fill="#fff"/>
        <path id="Path-10" data-name="Path" d="M.1,16.693a.1.1,0,0,1-.082-.042A.113.113,0,0,1,.04,16.5C10.242,8.078,12.228.162,12.247.083A.105.105,0,0,1,12.374,0a.109.109,0,0,1,.076.133C12.432.215,10.433,8.2.17,16.67A.1.1,0,0,1,.1,16.693Z" transform="translate(25.666 32.734)" fill="#fff"/>
        <path id="Path-11" data-name="Path" d="M.973,2.65a.077.077,0,0,1-.046-.016A2.391,2.391,0,0,1,.093.066.084.084,0,0,1,.2.006a.106.106,0,0,1,.051.13,2.134,2.134,0,0,0,.763,2.328.11.11,0,0,1,.028.139A.085.085,0,0,1,.973,2.65Z" transform="translate(15.737 37.202)" fill="#fff"/>
        <path id="Path-12" data-name="Path" d="M4.132,1.855a.106.106,0,0,1-.074-.031A6.025,6.025,0,0,0,.109.221h0A.109.109,0,0,1,0,.113.109.109,0,0,1,.1,0a6.1,6.1,0,0,1,4.1,1.665.112.112,0,0,1,0,.155A.1.1,0,0,1,4.132,1.855Z" transform="translate(16.559 41.088)" fill="#fff"/>
        <path id="Path-13" data-name="Path" d="M.1,5.3a.1.1,0,0,1-.08-.162A4.258,4.258,0,0,0,.02.16.1.1,0,0,1,.041.02.1.1,0,0,1,.184.041c.02.027,1.963,2.706,0,5.219A.1.1,0,0,1,.1,5.3Z" transform="translate(34.405 34.806)" fill="#fff"/>
        <path id="Path-14" data-name="Path" d="M.108,2.65a.111.111,0,0,1-.079-.032.1.1,0,0,1,.005-.144C2.9-.041,4.85,0,4.93,0a.1.1,0,0,1,.1.105.105.105,0,0,1-.112.1C4.905.2,2.977.172.182,2.622A.114.114,0,0,1,.108,2.65Z" transform="translate(30.503 42.623)" fill="#fff"/>
      </g>
      <path id="Path备份-3" d="M78,503.158h0c0-2.244,2.172-4.063,4.851-4.063.042,0,.08.009.121.01.557-2.323,3.005-4.073,5.943-4.073a6.9,6.9,0,0,1,3.115.742A6.249,6.249,0,0,1,97.4,493c2.938,0,5.386,1.75,5.943,4.073.041,0,.079-.01.121-.01,3.349,0,6.064,2.274,6.064,5.079a3.382,3.382,0,0,1-3.638,3.047H80.426A2.255,2.255,0,0,1,78,503.158Z" transform="translate(-62.993 -447.22)" fill="url(#linear-gradient-8)"/>
      <g id="plant_25_" transform="translate(137.883)">
        <g id="Group" transform="translate(0 13.471)">
          <path id="Path-15" data-name="Path" d="M1.918,27.193C.87,24.605-.694,20.939,2.5,18.774s.278-3.447.175-6.585S5.835,8.244,5.737,6.756a22.826,22.826,0,0,1,.042-5.242c.5-1.879,4.275-2.732,4.66,2.558.242,3.324.567,5.331,2.247,7.7s-2.02,4.878-1.952,6.787,1.892,1.626,1.692,5.671-2.719,7.1-5.115,6.924A7.151,7.151,0,0,1,1.918,27.193Z" transform="translate(-0.598 -0.066)" fill="url(#linear-gradient-9)"/>
          <path id="Path-16" data-name="Path" d="M16.366,24.079a.144.144,0,0,0-.2.068c-.028.059-.694,1.413-1.779.97a11.372,11.372,0,0,0,.125-2.494.132.132,0,0,0,.006-.015.158.158,0,0,0-.015-.1c-.013-.134-.029-.266-.051-.4a26.346,26.346,0,0,1,.024-6.051,7.423,7.423,0,0,0,.068-1.51.145.145,0,0,0-.178-.112.155.155,0,0,0-.106.188,9.54,9.54,0,0,1-.076,1.406,26.6,26.6,0,0,0-.021,6.133c.011.064.018.131.027.2a2.973,2.973,0,0,1-1.956-1.85.145.145,0,0,0-.185-.1.156.156,0,0,0-.094.195A3.281,3.281,0,0,0,14.227,22.7a22.217,22.217,0,0,1-.8,5.8,37.988,37.988,0,0,0-.887,5.126,16.39,16.39,0,0,0,.045,2.5c-.8-.414-2.975-1.7-3.032-3.433a.158.158,0,0,0-.151-.149.151.151,0,0,0-.141.16c.068,2.065,2.693,3.461,3.355,3.781.216,2.294.722,4.9,1.1,6.827a18.917,18.917,0,0,1,.45,2.787.155.155,0,0,0,.113.183.128.128,0,0,0,.03,0,.149.149,0,0,0,.143-.123A14.989,14.989,0,0,0,14,43.245c-.369-1.9-.867-4.468-1.085-6.727a.147.147,0,0,0,.041-.052.157.157,0,0,0-.063-.19,17.176,17.176,0,0,1-.066-2.491,2.8,2.8,0,0,0,2.624-1.9.156.156,0,0,0-.1-.192.146.146,0,0,0-.182.1,2.456,2.456,0,0,1-2.32,1.677,39.243,39.243,0,0,1,.864-4.909c.238-1.085.47-2.143.628-3.138a1.376,1.376,0,0,0,.471.088,2.023,2.023,0,0,0,1.617-1.23A.16.16,0,0,0,16.366,24.079Z" transform="translate(-6.966 -10.629)" fill="#fff"/>
        </g>
        <g id="Group-2" data-name="Group" transform="translate(13.56)">
          <path id="Path-17" data-name="Path" d="M16.568,38.158c1.477-3.618,3.681-8.745-.823-11.772s-.392-4.82-.246-9.207-4.452-5.515-4.314-7.6.366-5.759-.059-7.329C10.416-.373,5.1-1.566,4.558,5.831c-.341,4.648-.8,7.454-3.167,10.769s2.848,6.82,2.751,9.489-2.666,2.274-2.385,7.93S5.59,43.952,8.967,43.7C11.26,43.529,15.219,41.461,16.568,38.158Z" transform="translate(-0.775 -0.229)" fill="url(#linear-gradient-10)"/>
          <path id="Path-18" data-name="Path" d="M27.2,46.026a.152.152,0,0,0-.142-.16.16.16,0,0,0-.152.148c-.085,2.535-3.365,4.381-4.406,4.9a22.409,22.409,0,0,0,.077-3.594,52.66,52.66,0,0,0-1.249-7.158c-.67-3.022-1.3-5.891-1.122-8.169a4.567,4.567,0,0,0,3.2-2.89.156.156,0,0,0-.094-.194.146.146,0,0,0-.185.1,4.29,4.29,0,0,1-2.885,2.655c.015-.126.031-.251.051-.373a36.838,36.838,0,0,0-.03-8.558,12.617,12.617,0,0,1-.105-1.987.154.154,0,0,0-.106-.187.146.146,0,0,0-.179.111,10.675,10.675,0,0,0,.1,2.091A36.593,36.593,0,0,1,20,31.241c-.03.18-.053.365-.071.553a.16.16,0,0,0-.021.115.15.15,0,0,0,.01.026,15.785,15.785,0,0,0,.183,3.537h0c-1.6.688-2.582-1.288-2.623-1.372a.144.144,0,0,0-.2-.068.158.158,0,0,0-.065.207c.01.02.833,1.687,2.222,1.687a1.929,1.929,0,0,0,.715-.146c.222,1.411.553,2.914.9,4.457a53.978,53.978,0,0,1,1.226,6.938c-.611-.04-2.811-.314-3.392-2.388a.147.147,0,0,0-.183-.1.155.155,0,0,0-.1.191c.648,2.311,3.092,2.582,3.7,2.613a23.044,23.044,0,0,1-.1,3.58l-.006,0a.157.157,0,0,0-.079.2.151.151,0,0,0,.058.071c-.31,3.065-1.01,6.475-1.53,9.008A18.96,18.96,0,0,0,20.01,64.2a.149.149,0,0,0,.144.122.131.131,0,0,0,.031,0,.154.154,0,0,0,.114-.182,23.019,23.019,0,0,1,.629-3.725c.527-2.566,1.238-6.03,1.545-9.138C23.334,50.867,27.107,48.917,27.2,46.026Z" transform="translate(-12.845 -15.17)" fill="#fff"/>
        </g>
      </g>
      <path id="Fill-1-2" data-name="Fill-1" d="M541.443,495.092a3.36,3.36,0,0,0,.263-1.833,3.94,3.94,0,0,0-3.306-3.192,4.6,4.6,0,0,0-2.144.118,5.815,5.815,0,0,0-5.4-3.311c-.154,0-.307.007-.458.018A7.511,7.511,0,0,0,525.342,485a7.2,7.2,0,0,0-6.419,3.637,4.811,4.811,0,0,0-4.336,2.725c-.061,0-.122-.008-.184-.008A3.238,3.238,0,0,0,511,494.4a2.741,2.741,0,0,0,.154.907.874.874,0,0,0,.838.559h28.147a1.409,1.409,0,0,0,1.3-.772" transform="translate(-362.676 -441.339)" fill="url(#linear-gradient-11)"/>
      <path id="路径-19" d="M0,0H39.007q-.089,4.075-5.33,3.331c.682,4.346-5.3,6.675-8.177,4.346-2.469,5.205-8.5,2.33-8.5,0-2.143,2.739-6.838,1.229-7.076-1.814-3.558,1.98-6.1-.537-6.1-2.649Q0,3.331,0,0Z" transform="translate(166.662 57.969) rotate(180)" fill="url(#linear-gradient-12)"/>
      <path id="路径-19-2" data-name="路径-19" d="M154.007,518.009H115q.089-3.463,5.33-2.832c-.682-3.694,5.3-5.674,8.177-3.694,2.469-4.425,8.5-1.98,8.5,0,2.143-2.328,6.838-1.044,7.076,1.542,3.558-1.683,6.1.457,6.1,2.251Q154.007,515.177,154.007,518.009Z" transform="translate(-90.189 -458.98)" fill="url(#linear-gradient-13)"/>
    </g>
    <g id="组_6020" data-name="组 6020" transform="translate(-5015.203 -10365.879)">
      <g id="组_6018" data-name="组 6018" transform="translate(6436.786 11342.896)">
        <path id="路径_8797" data-name="路径 8797" d="M296.412,297.393l-54.832,4.8-5.38-61.5,54.832-4.793Z" transform="translate(-236.2 -235.825)" fill="url(#linear-gradient-14)"/>
        <path id="路径_8798" data-name="路径 8798" d="M303.612,296.7,248.78,301.5,243.4,240l54.832-4.8Z" transform="translate(-242.631 -235.2)" fill="url(#linear-gradient-15)"/>
        <rect id="矩形_3158" data-name="矩形 3158" width="47.051" height="48.705" transform="translate(5.215 8.419) rotate(-5)" fill="#fff"/>
        <path id="路径_8799" data-name="路径 8799" d="M329.6,472.663,361.067,438.4l12.617,15.563,1.281,14.73Z" transform="translate(-319.63 -416.71)" fill="#ffe8e8"/>
        <circle id="椭圆_100" data-name="椭圆 100" cx="5.252" cy="5.252" r="5.252" transform="translate(11.688 17.345)" fill="#ffe2e2"/>
      </g>
      <g id="组_6019" data-name="组 6019" transform="translate(6490.07 11333)">
        <circle id="椭圆_101" data-name="椭圆 101" cx="0.683" cy="0.683" r="0.683" transform="translate(0 11.625)" fill="#ffc9c9"/>
        <path id="路径_8800" data-name="路径 8800" d="M746,185.39c-2.263,2.263-4.227,3.981-4.376,3.821s1.558-2.113,3.821-4.376,4.227-3.981,4.376-3.821S748.274,183.116,746,185.39Z" transform="translate(-740.951 -176.892)" fill="url(#linear-gradient-16)"/>
        <path id="路径_8801" data-name="路径 8801" d="M768.608,183.159a7.116,7.116,0,0,0-1.825-2.754,7,7,0,0,0-2.754-1.825l-.48-.48-.6.6c-.587.587.181,2.295,1.719,3.832s3.245,2.295,3.832,1.719l.6-.6Z" transform="translate(-759.834 -174.299)" fill="url(#linear-gradient-17)"/>
        <path id="路径_8802" data-name="路径 8802" d="M773.948,181.9c-.587.587-2.295-.181-3.832-1.719s-2.295-3.245-1.719-3.832,2.295.181,3.832,1.719S774.535,181.314,773.948,181.9Z" transform="translate(-764.704 -172.56)" fill="url(#linear-gradient-17)"/>
        <path id="路径_8803" data-name="路径 8803" d="M783.112,162.138l3.149-4.953-.726-.726-.534-.534-.726-.726-4.953,3.149c-.256.256.374,1.313,1.42,2.359s2.113,1.686,2.37,1.43Z" transform="translate(-774.583 -153.844)" fill="#ffd3d3"/>
        <path id="路径_8804" data-name="路径 8804" d="M817.709,147.551a5,5,0,0,0-1.324-1.985,5.2,5.2,0,0,0-1.985-1.324l-.342-.342-.427.427c-.416.416.128,1.654,1.238,2.765s2.348,1.665,2.765,1.238l.427-.427Z" transform="translate(-805.157 -143.75)" fill="url(#linear-gradient-19)"/>
        <path id="路径_8805" data-name="路径 8805" d="M821.6,146.634c-.416.416-1.654-.128-2.765-1.238s-1.665-2.348-1.238-2.765,1.654.128,2.765,1.238S822.014,146.218,821.6,146.634Z" transform="translate(-808.693 -142.492)" fill="url(#linear-gradient-20)"/>
      </g>
    </g>
  </g>
</svg>
